<svg width="84" height="84" viewBox="0 0 84 84" fill="none" xmlns="http://www.w3.org/2000/svg">
<circle cx="42" cy="42" r="42" fill="#48B9FF"/>
<path d="M9.5713 47.2279C11.3369 45.365 15.1321 46.1326 18.0476 48.9429V48.9429C20.1611 50.9803 24.4645 53.148 27.3386 53.7456C29.9253 54.2833 32.6487 55.7353 34.9689 58.0122C39.8948 62.8464 41.1372 69.5677 37.7441 73.0252C34.3511 76.4827 27.6076 75.3672 22.6816 70.5333C21.1271 69.0078 19.9398 67.2945 19.1493 65.5552C17.7327 62.4384 14.1185 58.0659 11.6536 55.6898V55.6898C8.73826 52.8795 7.8058 49.091 9.5713 47.2279Z" fill="#FEFAFF"/>
<ellipse cx="12.5" cy="33.5" rx="5.5" ry="6.5" fill="#FEFAFF"/>
</svg>
