<svg width="28" height="27" viewBox="0 0 28 27" fill="none" xmlns="http://www.w3.org/2000/svg">
<path d="M8.94485 25.5747L1.31616 26.2888L3.46173 19.1477L18.9575 3.67538C19.8109 2.97823 21.4518 1.55514 21.3519 1.31074C21.3333 1.28872 21.3293 1.28285 21.3415 1.29502C21.346 1.29954 21.3495 1.30479 21.3519 1.31074C21.6764 1.6948 26.4415 6.99321 27.2057 7.25985C27.3006 7.18161 27.3402 7.1684 27.3014 7.24592C27.2877 7.2733 27.255 7.27706 27.2057 7.25985C26.8341 7.566 25.6136 8.86793 24.9174 9.62627L8.94485 25.5747Z" fill="#FF5252"/>
<path d="M3.46173 19.1477L8.94485 25.5747M3.46173 19.1477L1.31616 26.2888L8.94485 25.5747M3.46173 19.1477L18.9575 3.67538M8.94485 25.5747L24.9174 9.62627M18.9575 3.67538L24.9174 9.62627M18.9575 3.67538C19.8316 2.96127 21.5322 1.48545 21.3415 1.29502C21.1031 1.05698 27.063 7.72199 27.3014 7.24592C27.4921 6.86506 25.7915 8.67413 24.9174 9.62627" stroke="#48B9FF"/>
</svg>
