<svg width="20" height="15" viewBox="0 0 20 15" fill="none" xmlns="http://www.w3.org/2000/svg">
<path d="M1.35055 6.09744C1.07035 6.37869 0.912964 6.75994 0.912964 7.15744C0.912964 7.55494 1.07035 7.93619 1.35055 8.21744L6.99248 13.8764C7.27318 14.1578 7.65388 14.3159 8.05084 14.3159C8.44781 14.3159 8.82851 14.1578 9.1092 13.8764C9.3899 13.595 9.54759 13.2134 9.54759 12.8154C9.54759 12.4175 9.3899 12.0358 9.1092 11.7544L6.02091 8.65744L17.5272 8.65744C17.924 8.65744 18.3046 8.4994 18.5852 8.2181C18.8658 7.93679 19.0235 7.55526 19.0235 7.15744C19.0235 6.75961 18.8658 6.37808 18.5852 6.09678C18.3046 5.81547 17.924 5.65744 17.5272 5.65744L6.02091 5.65744L9.1092 2.56144C9.24819 2.4221 9.35844 2.25669 9.43366 2.07465C9.50888 1.8926 9.54759 1.69748 9.54759 1.50044C9.54759 1.30339 9.50888 1.10828 9.43366 0.926228C9.35844 0.744181 9.24819 0.578769 9.1092 0.439437C8.97022 0.300104 8.80522 0.189581 8.62362 0.114175C8.44203 0.0387684 8.2474 -4.32367e-05 8.05084 -4.32281e-05C7.85429 -4.32195e-05 7.65966 0.0387685 7.47806 0.114175C7.29647 0.189581 7.13147 0.300104 6.99248 0.439437L1.35055 6.09744Z" fill="#FEFAFF"/>
</svg>
