<svg width="295" height="185" viewBox="0 0 295 185" fill="none" xmlns="http://www.w3.org/2000/svg">
<path d="M290.901 148.057C292.807 147.644 294.23 149.859 292.912 151.297C277.062 168.6 254.568 179.803 229.268 180.762C179.054 182.666 136.804 143.503 134.9 93.2886C133.368 52.8964 158.41 17.6594 194.401 4.42848C196.232 3.75542 197.739 5.91119 196.631 7.51667C185.869 23.1132 179.867 42.1915 180.64 62.5841C182.545 112.798 224.795 151.961 275.009 150.057C280.449 149.851 285.759 149.17 290.901 148.057Z" fill="#FFDC4E"/>
<path d="M92.9117 29.5647C74.1116 29.5649 58.4338 42.9277 54.855 60.6731C50.1702 58.6682 45.0116 57.5569 39.5933 57.5569C18.1507 57.5569 0.768127 74.9404 0.768127 96.3831C0.768355 114.862 13.678 130.324 30.9703 134.245C35.7166 142.356 44.5183 147.805 54.5943 147.805C59.3839 147.805 63.8849 146.572 67.8004 144.409C74.7388 150.894 84.0555 154.864 94.3013 154.865C109.356 154.865 122.41 146.296 128.851 133.769C132.437 134.862 136.243 135.452 140.186 135.452C161.629 135.452 179.011 118.069 179.011 96.6262C179.011 80.2516 168.874 66.2456 154.533 60.5393C151.425 48.8455 140.767 40.2288 128.095 40.2288C125.522 40.2288 123.031 40.584 120.67 41.2483C113.622 34.0403 103.79 29.5647 92.9117 29.5647Z" fill="#FFAE00"/>
<path d="M94.7709 36.2295C76.7473 36.2295 61.5939 48.5114 57.2192 65.1621C52.979 63.5724 48.3875 62.7012 43.5922 62.7012C22.1497 62.7012 4.7662 80.0839 4.76605 101.526C4.76605 119.669 17.2112 134.904 34.0297 139.164C38.4848 148.23 47.8091 154.47 58.5922 154.47C63.382 154.47 67.8837 153.237 71.7993 151.074C78.7377 157.558 88.0544 161.529 98.3002 161.529C113.355 161.529 126.409 152.96 132.85 140.434C136.436 141.527 140.242 142.117 144.185 142.117C165.628 142.117 183.01 124.734 183.01 103.291C183.01 85.0207 170.389 69.7002 153.391 65.5664C149.784 54.6757 139.52 46.8184 127.419 46.8184C125.556 46.8184 123.737 47.0054 121.978 47.3604C114.972 40.4771 105.368 36.2295 94.7709 36.2295Z" fill="#4333AE"/>
<g filter="url(#filter0_f_197_99)">
<path d="M94.6432 56.2243C83.0518 56.2245 73.3065 64.1233 70.4929 74.8317C67.7658 73.8093 64.8123 73.2497 61.7282 73.2497C47.9377 73.2498 36.7586 84.4289 36.7585 98.2194C36.7585 109.888 44.762 119.686 55.5788 122.425C58.444 128.256 64.4405 132.27 71.3757 132.27C74.4562 132.27 77.3515 131.477 79.8698 130.086C84.3322 134.256 90.3242 136.81 96.9138 136.81C106.596 136.81 114.992 131.299 119.134 123.242C121.441 123.945 123.888 124.325 126.424 124.325C140.215 124.325 151.394 113.145 151.394 99.3552C151.394 87.6048 143.278 77.7513 132.345 75.0925C130.026 68.0879 123.424 63.0339 115.641 63.0339C114.443 63.0339 113.272 63.1542 112.141 63.3825C107.636 58.9559 101.459 56.2243 94.6432 56.2243Z" fill="#FFC16B" fill-opacity="0.32"/>
</g>
<mask id="mask0_197_99" style="mask-type:alpha" maskUnits="userSpaceOnUse" x="65" y="87" width="25" height="25">
<ellipse cx="77.5948" cy="99.2584" rx="11.9001" ry="11.8013" transform="rotate(-160.587 77.5948 99.2584)" fill="white"/>
</mask>
<g mask="url(#mask0_197_99)">
<ellipse cx="76.7012" cy="98.8666" rx="15.2962" ry="14.8936" transform="rotate(-160.587 76.7012 98.8666)" fill="#FEFAFF"/>
<circle cx="81.7245" cy="101.918" r="5.58842" transform="rotate(-160.587 81.7245 101.918)" fill="black" stroke="#401255"/>
</g>
<path d="M88.8774 92.0455L87.1742 90.9347C82.0781 87.6111 75.4567 87.6979 70.3476 91.1553V91.1553L59.9528 98.2312" stroke="#401255" stroke-width="4" stroke-linecap="round"/>
<path d="M68.965 91.6671L66.7807 92.4388L63.2929 92.5739L58.5711 92.2856" stroke="#401255" stroke-width="3" stroke-linecap="round"/>
<path d="M73.1636 89.1882L68.5528 89.5669L64.9464 89.1059L61.2216 88.0488" stroke="#401255" stroke-width="3" stroke-linecap="round"/>
<mask id="mask1_197_99" style="mask-type:alpha" maskUnits="userSpaceOnUse" x="100" y="87" width="25" height="25">
<ellipse cx="11.9001" cy="11.8013" rx="11.9001" ry="11.8013" transform="matrix(0.943147 -0.332374 -0.332374 -0.943147 105.091 114.808)" fill="white"/>
</mask>
<g mask="url(#mask1_197_99)">
<ellipse cx="15.2962" cy="14.8936" rx="15.2962" ry="14.8936" transform="matrix(0.943147 -0.332374 -0.332374 -0.943147 103.81 118.461)" fill="#FEFAFF"/>
<circle cx="6.08842" cy="6.08842" r="5.58842" transform="matrix(0.943147 -0.332374 -0.332374 -0.943147 104.544 110.148)" fill="black" stroke="#401255"/>
</g>
<path d="M101.11 92.5092L102.813 91.3984C107.909 88.0748 114.531 88.1616 119.64 91.619V91.619L130.035 98.6948" stroke="#401255" stroke-width="4" stroke-linecap="round"/>
<path d="M121.022 92.1308L123.207 92.9025L126.695 93.0376L131.416 92.7493" stroke="#401255" stroke-width="3" stroke-linecap="round"/>
<path d="M116.824 89.6518L121.435 90.0306L125.041 89.5696L128.766 88.5125" stroke="#401255" stroke-width="3" stroke-linecap="round"/>
<defs>
<filter id="filter0_f_197_99" x="3.65849" y="23.1243" width="180.836" height="146.786" filterUnits="userSpaceOnUse" color-interpolation-filters="sRGB">
<feFlood flood-opacity="0" result="BackgroundImageFix"/>
<feBlend mode="normal" in="SourceGraphic" in2="BackgroundImageFix" result="shape"/>
<feGaussianBlur stdDeviation="16.55" result="effect1_foregroundBlur_197_99"/>
</filter>
</defs>
</svg>
