<svg width="51" height="53" viewBox="0 0 51 53" fill="none" xmlns="http://www.w3.org/2000/svg">
<g filter="url(#filter0_d_3_115)">
<path d="M10.746 17.1034C10.2113 16.3053 11 15.2857 11.9068 15.6028L20.8393 18.7258C21.253 18.8704 21.7127 18.7288 21.9733 18.3765L28.0345 10.1826C28.6404 9.36365 29.9398 9.86905 29.833 10.8822L28.825 20.4458C28.7743 20.9268 29.0751 21.3751 29.5394 21.5106L38.3279 24.0746C39.2734 24.3505 39.2927 25.6829 38.3556 25.9861L28.7277 29.1002C28.3356 29.2271 28.0614 29.5815 28.0372 29.9929L27.4422 40.0944C27.3843 41.0776 26.0898 41.3938 25.5852 40.5479L20.895 32.6857C20.6472 32.2704 20.1377 32.0919 19.6849 32.2618L10.6814 35.6406C9.72763 35.9985 8.91192 34.8678 9.5524 34.0756L15.9603 26.1499C16.2358 25.8091 16.2573 25.3286 16.0134 24.9646L10.746 17.1034Z" fill="#FFD78D"/>
</g>
<defs>
<filter id="filter0_d_3_115" x="0.224463" y="0.674353" width="49.9234" height="51.4625" filterUnits="userSpaceOnUse" color-interpolation-filters="sRGB">
<feFlood flood-opacity="0" result="BackgroundImageFix"/>
<feColorMatrix in="SourceAlpha" type="matrix" values="0 0 0 0 0 0 0 0 0 0 0 0 0 0 0 0 0 0 127 0" result="hardAlpha"/>
<feOffset dx="1" dy="1"/>
<feGaussianBlur stdDeviation="5.05"/>
<feComposite in2="hardAlpha" operator="out"/>
<feColorMatrix type="matrix" values="0 0 0 0 1 0 0 0 0 0.843567 0 0 0 0 0.554167 0 0 0 0.3 0"/>
<feBlend mode="normal" in2="BackgroundImageFix" result="effect1_dropShadow_3_115"/>
<feBlend mode="normal" in="SourceGraphic" in2="effect1_dropShadow_3_115" result="shape"/>
</filter>
</defs>
</svg>
