<svg width="70" height="65" viewBox="0 0 70 65" fill="none" xmlns="http://www.w3.org/2000/svg">
<g filter="url(#filter0_d_3_117)">
<path d="M35.2711 9.74842C35.6991 8.88436 36.9816 9.06693 37.1515 10.0161L39.8922 25.3266C39.9697 25.7593 40.3207 26.0907 40.7572 26.1432L57.4181 28.1463C58.4269 28.2676 58.6329 29.6416 57.704 30.0533L43.0135 36.5656C42.5745 36.7602 42.3358 37.2393 42.4449 37.707L45.9191 52.6042C46.143 53.5642 44.9898 54.2348 44.2662 53.5655L32.1613 42.3679C31.8558 42.0853 31.4072 42.0214 31.035 42.2076L16.2862 49.5823C15.4046 50.0231 14.4843 49.0574 14.9672 48.198L22.4606 34.8621C22.6958 34.4435 22.6003 33.9168 22.2331 33.6074L9.9435 23.2543C9.16643 22.5997 9.74765 21.3377 10.7502 21.5028L27.3083 24.2287C27.7421 24.3001 28.1716 24.0798 28.3668 23.6858L35.2711 9.74842Z" fill="#FFD78D"/>
</g>
<defs>
<filter id="filter0_d_3_117" x="0.484076" y="0.0918941" width="68.9152" height="64.8437" filterUnits="userSpaceOnUse" color-interpolation-filters="sRGB">
<feFlood flood-opacity="0" result="BackgroundImageFix"/>
<feColorMatrix in="SourceAlpha" type="matrix" values="0 0 0 0 0 0 0 0 0 0 0 0 0 0 0 0 0 0 127 0" result="hardAlpha"/>
<feOffset dx="1" dy="1"/>
<feGaussianBlur stdDeviation="5.05"/>
<feComposite in2="hardAlpha" operator="out"/>
<feColorMatrix type="matrix" values="0 0 0 0 1 0 0 0 0 0.843567 0 0 0 0 0.554167 0 0 0 0.3 0"/>
<feBlend mode="normal" in2="BackgroundImageFix" result="effect1_dropShadow_3_117"/>
<feBlend mode="normal" in="SourceGraphic" in2="effect1_dropShadow_3_117" result="shape"/>
</filter>
</defs>
</svg>
