<svg width="73" height="68" viewBox="0 0 73 68" fill="none" xmlns="http://www.w3.org/2000/svg">
<g filter="url(#filter0_d_3_119)">
<path d="M24.8294 10.3701C24.6852 9.43349 25.8033 8.8404 26.4979 9.48491L38.4875 20.6093C38.805 20.9039 39.2761 20.9606 39.6544 20.7498L55.7298 11.7928C56.628 11.2923 57.606 12.3104 57.0698 13.1878L48.068 27.9189C47.8092 28.3424 47.9002 28.8917 48.2818 29.2091L60.5557 39.4179C61.3109 40.0461 60.8024 41.2729 59.8242 41.1825L41.9903 39.5346C41.5941 39.498 41.214 39.6997 41.0222 40.0482L32.386 55.7383C31.9123 56.5989 30.6114 56.332 30.5148 55.3544L28.9449 39.4673C28.8961 38.9733 28.4923 38.5899 27.9965 38.5667L10.7516 37.7593C9.72447 37.7112 9.42995 36.3306 10.348 35.8675L26.7787 27.5803C27.1654 27.3853 27.3826 26.9634 27.3168 26.5354L24.8294 10.3701Z" fill="#FFD78D"/>
</g>
<defs>
<filter id="filter0_d_3_119" x="0.69721" y="0.114614" width="71.3219" height="67.2424" filterUnits="userSpaceOnUse" color-interpolation-filters="sRGB">
<feFlood flood-opacity="0" result="BackgroundImageFix"/>
<feColorMatrix in="SourceAlpha" type="matrix" values="0 0 0 0 0 0 0 0 0 0 0 0 0 0 0 0 0 0 127 0" result="hardAlpha"/>
<feOffset dx="1" dy="1"/>
<feGaussianBlur stdDeviation="5.05"/>
<feComposite in2="hardAlpha" operator="out"/>
<feColorMatrix type="matrix" values="0 0 0 0 1 0 0 0 0 0.843567 0 0 0 0 0.554167 0 0 0 0.3 0"/>
<feBlend mode="normal" in2="BackgroundImageFix" result="effect1_dropShadow_3_119"/>
<feBlend mode="normal" in="SourceGraphic" in2="effect1_dropShadow_3_119" result="shape"/>
</filter>
</defs>
</svg>
