<svg width="46" height="45" viewBox="0 0 46 45" fill="none" xmlns="http://www.w3.org/2000/svg">
<g filter="url(#filter0_d_3_118)">
<path d="M18.3929 10.2011C18.3873 9.23685 19.6152 8.82408 20.1933 9.59588L24.502 15.3488C24.7655 15.7007 25.228 15.8391 25.6416 15.69L32.8122 13.1046C33.7681 12.7599 34.5691 13.8951 33.9241 14.6801L29.3651 20.2284C29.0603 20.5994 29.0622 21.1347 29.3696 21.5035L33.7907 26.8079C34.4218 27.5651 33.6925 28.6822 32.7454 28.409L25.4041 26.2918C25.0042 26.1765 24.5747 26.3209 24.3257 26.6543L19.7541 32.7763C19.1643 33.566 17.9084 33.1163 17.9539 32.1317L18.273 25.2338C18.2952 24.7542 17.9733 24.3264 17.5063 24.2149L10.5216 22.5472C9.53333 22.3113 9.48599 20.9227 10.4559 20.62L17.7323 18.3489C18.1519 18.2179 18.4368 17.8282 18.4343 17.3885L18.3929 10.2011Z" fill="#FFD78D"/>
</g>
<defs>
<filter id="filter0_d_3_118" x="0.653814" y="0.093359" width="44.6031" height="44.1869" filterUnits="userSpaceOnUse" color-interpolation-filters="sRGB">
<feFlood flood-opacity="0" result="BackgroundImageFix"/>
<feColorMatrix in="SourceAlpha" type="matrix" values="0 0 0 0 0 0 0 0 0 0 0 0 0 0 0 0 0 0 127 0" result="hardAlpha"/>
<feOffset dx="1" dy="1"/>
<feGaussianBlur stdDeviation="5.05"/>
<feComposite in2="hardAlpha" operator="out"/>
<feColorMatrix type="matrix" values="0 0 0 0 1 0 0 0 0 0.843567 0 0 0 0 0.554167 0 0 0 0.3 0"/>
<feBlend mode="normal" in2="BackgroundImageFix" result="effect1_dropShadow_3_118"/>
<feBlend mode="normal" in="SourceGraphic" in2="effect1_dropShadow_3_118" result="shape"/>
</filter>
</defs>
</svg>
