<svg width="56" height="54" viewBox="0 0 56 54" fill="none" xmlns="http://www.w3.org/2000/svg">
<g filter="url(#filter0_d_3_116)">
<path d="M22.5862 10.2569C22.6287 9.29716 23.8682 8.94358 24.4106 9.73651L30.5729 18.7452C30.8203 19.1069 31.2744 19.2654 31.6932 19.1361L42.9669 15.6566C43.9403 15.3562 44.6871 16.5335 44.0006 17.2861L36.4722 25.5386C36.1463 25.8959 36.1227 26.4353 36.4164 26.8196L42.8587 35.2521C43.4566 36.0348 42.6823 37.1193 41.7479 36.8079L30.681 33.1196C30.29 32.9893 29.8591 33.1122 29.5957 33.4292L22.1401 42.401C21.5106 43.1585 20.2806 42.6457 20.3757 41.6654L21.3997 31.1031C21.4464 30.6217 21.1419 30.1759 20.6764 30.0443L9.92726 27.0054C8.94696 26.7282 8.96031 25.3341 9.94574 25.0758L21.3586 22.0841C21.7825 21.9729 22.0847 21.5987 22.104 21.1609L22.5862 10.2569Z" fill="#FFD78D"/>
</g>
<defs>
<filter id="filter0_d_3_116" x="0.0993099" y="0.199591" width="55.2677" height="53.6652" filterUnits="userSpaceOnUse" color-interpolation-filters="sRGB">
<feFlood flood-opacity="0" result="BackgroundImageFix"/>
<feColorMatrix in="SourceAlpha" type="matrix" values="0 0 0 0 0 0 0 0 0 0 0 0 0 0 0 0 0 0 127 0" result="hardAlpha"/>
<feOffset dx="1" dy="1"/>
<feGaussianBlur stdDeviation="5.05"/>
<feComposite in2="hardAlpha" operator="out"/>
<feColorMatrix type="matrix" values="0 0 0 0 1 0 0 0 0 0.843567 0 0 0 0 0.554167 0 0 0 0.3 0"/>
<feBlend mode="normal" in2="BackgroundImageFix" result="effect1_dropShadow_3_116"/>
<feBlend mode="normal" in="SourceGraphic" in2="effect1_dropShadow_3_116" result="shape"/>
</filter>
</defs>
</svg>
