<svg width="71" height="77" viewBox="0 0 71 77" fill="none" xmlns="http://www.w3.org/2000/svg">
<g filter="url(#filter0_d_3_167)">
<path d="M35.506 23.5159L35.374 23.4359C33.878 22.5258 32.562 21.7236 31.434 21.3196C30.8122 21.0805 30.1474 20.9736 29.482 21.0055C28.7816 21.059 28.112 21.3163 27.556 21.7456C26.398 22.6138 25.898 23.892 25.624 25.3062C25.358 26.6765 25.256 28.4608 25.13 30.6331L25.124 30.7452C25.048 32.0454 25 33.3316 25 34.4978C25 35.664 25.048 36.9522 25.124 38.2524L25.13 38.3624C25.256 40.5348 25.358 42.3191 25.624 43.6873C25.898 45.1036 26.398 46.3798 27.556 47.2499C28.128 47.68 28.77 47.9361 29.482 47.9901C30.166 48.0401 30.822 47.896 31.434 47.676C32.562 47.2719 33.878 46.4698 35.374 45.5617L35.506 45.4816C36.358 44.9616 37.194 44.4275 37.94 43.9014C38.8536 43.2513 39.7441 42.5695 40.61 41.857L40.71 41.775C42.238 40.5288 43.534 39.4706 44.43 38.4305C45.406 37.2903 46 36.0661 46 34.4978C46 32.9295 45.406 31.7033 44.428 30.5651C43.534 29.525 42.238 28.4648 40.712 27.2206L40.612 27.1385C39.704 26.3984 38.792 25.6903 37.94 25.0942C37.1455 24.542 36.3337 24.015 35.506 23.5139" fill="#CABCFF"/>
</g>
<defs>
<filter id="filter0_d_3_167" x="0.299999" y="0.299999" width="70.4" height="76.4" filterUnits="userSpaceOnUse" color-interpolation-filters="sRGB">
<feFlood flood-opacity="0" result="BackgroundImageFix"/>
<feColorMatrix in="SourceAlpha" type="matrix" values="0 0 0 0 0 0 0 0 0 0 0 0 0 0 0 0 0 0 127 0" result="hardAlpha"/>
<feOffset dy="4"/>
<feGaussianBlur stdDeviation="12.35"/>
<feComposite in2="hardAlpha" operator="out"/>
<feColorMatrix type="matrix" values="0 0 0 0 1 0 0 0 0 0.862745 0 0 0 0 0.305882 0 0 0 0.3 0"/>
<feBlend mode="normal" in2="BackgroundImageFix" result="effect1_dropShadow_3_167"/>
<feBlend mode="normal" in="SourceGraphic" in2="effect1_dropShadow_3_167" result="shape"/>
</filter>
</defs>
</svg>
