<svg width="20" height="17" viewBox="0 0 20 17" fill="none" xmlns="http://www.w3.org/2000/svg">
<path d="M18.3991 14.8332C16.4837 14.8849 14.5716 15.0075 12.6547 15.0075C10.9171 15.0075 9.02782 15.2237 7.31721 14.8816C5.7906 14.5763 4.19334 13.6202 3.2293 12.3921C2.20282 11.0843 2.20423 9.09369 2.39622 7.50981C2.55969 6.16119 4.52967 5.95018 5.56386 5.89208C7.60858 5.77721 9.89718 6.74559 11.2598 8.27508C12.7129 9.90607 15.1341 16.052 14.534 13.9517C13.5287 10.4331 10.4747 8.13755 9.02212 4.8362C8.74455 4.20536 8.45716 3.32062 8.67339 2.61788C8.96998 1.65395 10.6896 1.63222 11.4923 1.59106C13.8027 1.47258 14.8554 3.22793 15.6093 5.20431C16.5776 7.743 17.5273 10.1589 17.5273 12.9151" stroke="#2B00AC" stroke-width="3" stroke-linecap="round"/>
</svg>
