<svg width="25" height="25" viewBox="0 0 25 25" fill="none" xmlns="http://www.w3.org/2000/svg">
<path fill-rule="evenodd" clip-rule="evenodd" d="M13.8827 25H11.1178C6.80926 25 4.6556 25 3.18692 23.735C1.71824 22.47 1.41325 20.3538 0.804525 16.1188L0.455791 13.6975C-0.0191879 10.4012 -0.256678 8.7525 0.419543 7.34375C1.09576 5.935 2.5332 5.0775 5.40932 3.365L7.1405 2.33375C9.75038 0.7775 11.0578 0 12.5003 0C13.9427 0 15.2489 0.7775 17.86 2.33375L19.5912 3.365C22.4661 5.0775 23.9048 5.935 24.581 7.34375C25.2572 8.7525 25.0185 10.4012 24.5435 13.6975L24.196 16.1188C23.5873 20.3538 23.2823 22.47 21.8136 23.735C20.3449 25 18.1913 25 13.8827 25ZM7.99796 16.9412C8.14599 16.7415 8.36729 16.6088 8.61318 16.5722C8.85906 16.5357 9.10941 16.5983 9.30915 16.7463C10.2191 17.4213 11.3178 17.8125 12.5003 17.8125C13.6827 17.8125 14.7814 17.4213 15.6914 16.7463C15.7903 16.6729 15.9026 16.6197 16.0221 16.5898C16.1415 16.5598 16.2657 16.5537 16.3875 16.5717C16.5093 16.5898 16.6264 16.6317 16.732 16.6949C16.8377 16.7582 16.9298 16.8417 17.0032 16.9406C17.0766 17.0395 17.1297 17.1519 17.1597 17.2714C17.1896 17.3908 17.1957 17.515 17.1777 17.6368C17.1596 17.7586 17.1178 17.8757 17.0545 17.9813C16.9912 18.087 16.9077 18.1791 16.8088 18.2525C15.5646 19.1823 14.0535 19.6856 12.5003 19.6875C10.947 19.6856 9.4359 19.1823 8.1917 18.2525C7.99219 18.1043 7.8597 17.8829 7.82337 17.637C7.78704 17.3911 7.84984 17.1408 7.99796 16.9412Z" fill="#CABCFF" fill-opacity="0.5"/>
</svg>
