<svg width="19" height="14" viewBox="0 0 19 14" fill="none" xmlns="http://www.w3.org/2000/svg">
<path d="M2.56692 5.42733C1.43651 5.70994 4.89639 5.36051 6.0608 5.31738C6.38649 5.30532 6.68479 5.06396 6.806 4.75543C7.04007 4.15962 7.21653 3.57101 7.74666 3.17341C8.8138 2.37305 10.1644 1.95739 11.4727 1.79907C12.0349 1.73102 12.7675 1.57573 13.3418 1.71356C14.0074 1.87331 14.0292 3.15522 13.9892 3.67428C13.8896 4.96916 12.9392 5.24453 11.772 5.30517C11.0908 5.34055 9.04362 5.31738 9.72571 5.31738C12.0332 5.31738 16.8914 5.72855 16.97 8.8357C16.9937 9.77076 16.792 10.9056 15.9072 11.4256C14.2307 12.4107 11.69 10.1668 10.4648 9.2877C9.66164 8.71139 7.84439 7.72343 7.84439 6.54513C7.84439 6.17274 7.87884 6.18054 8.17423 6.41686" stroke="#2B00AC" stroke-width="3" stroke-linecap="round"/>
</svg>
