<svg width="54" height="54" viewBox="0 0 54 54" fill="none" xmlns="http://www.w3.org/2000/svg">
<g filter="url(#filter0_i_448_157)">
<circle cx="27" cy="27" r="27" fill="#170256"/>
</g>
<path d="M42.9256 32.9114C43.2883 32.0474 42.2519 31.3114 41.3825 31.6954C39.6446 32.4574 37.7672 32.8497 35.8696 32.8474C28.4295 32.8474 22.3992 26.938 22.3992 19.6473C22.3985 17.1859 23.0977 14.7751 24.4152 12.6961C24.9201 11.8997 24.3139 10.7974 23.3895 11.0321C16.2623 12.8508 11 19.2011 11 26.7549C11 35.7275 18.4223 43.0004 27.5797 43.0004C34.5131 43.0004 40.451 38.8315 42.9256 32.9114Z" fill="#EBCA4F"/>
<path d="M33.4198 11.1827C32.4776 10.5534 31.354 11.677 31.9816 12.6192L33.1016 14.2992C33.5564 14.9802 33.7991 15.7808 33.7991 16.5997C33.7991 17.4186 33.5564 18.2191 33.1016 18.9002L31.9816 20.5802C31.354 21.5224 32.4793 22.646 33.4216 22.0166L35.0998 20.8966C35.7808 20.4418 36.5814 20.1991 37.4003 20.1991C38.2192 20.1991 39.0197 20.4418 39.7007 20.8966L41.3808 22.0166C42.323 22.646 43.4466 21.5224 42.8172 20.5802L41.6972 18.9002C41.2424 18.2191 40.9997 17.4186 40.9997 16.5997C40.9997 15.7808 41.2424 14.9802 41.6972 14.2992L42.8172 12.6192C43.4466 11.677 42.323 10.5534 41.379 11.1827L39.7007 12.3028C39.0197 12.7576 38.2192 13.0003 37.4003 13.0003C36.5814 13.0003 35.7808 12.7576 35.0998 12.3028L33.4198 11.1827Z" fill="#EBCA4F"/>
<defs>
<filter id="filter0_i_448_157" x="0" y="0" width="54" height="57" filterUnits="userSpaceOnUse" color-interpolation-filters="sRGB">
<feFlood flood-opacity="0" result="BackgroundImageFix"/>
<feBlend mode="normal" in="SourceGraphic" in2="BackgroundImageFix" result="shape"/>
<feColorMatrix in="SourceAlpha" type="matrix" values="0 0 0 0 0 0 0 0 0 0 0 0 0 0 0 0 0 0 127 0" result="hardAlpha"/>
<feOffset dy="3"/>
<feGaussianBlur stdDeviation="2"/>
<feComposite in2="hardAlpha" operator="arithmetic" k2="-1" k3="1"/>
<feColorMatrix type="matrix" values="0 0 0 0 1 0 0 0 0 0.862745 0 0 0 0 0.305882 0 0 0 1 0"/>
<feBlend mode="normal" in2="shape" result="effect1_innerShadow_448_157"/>
</filter>
</defs>
</svg>
