<svg width="25" height="24" viewBox="0 0 25 24" fill="none" xmlns="http://www.w3.org/2000/svg">
<path d="M24.6185 16.4334C24.8905 15.7854 24.1131 15.2334 23.4611 15.5214C22.1577 16.0928 20.7497 16.3871 19.3265 16.3854C13.7465 16.3854 9.22386 11.9534 9.22386 6.48539C9.22329 4.6394 9.74769 2.83131 10.7359 1.27207C11.1145 0.674743 10.6599 -0.151921 9.96653 0.0240787C4.62121 1.38807 0.674561 6.15073 0.674561 11.816C0.674561 18.5454 6.24121 24 13.1092 24C18.3092 24 22.7625 20.8733 24.6185 16.4334Z" fill="#280636" fill-opacity="0.5"/>
<path d="M17.4892 0.137058C16.7825 -0.334941 15.9398 0.507723 16.4105 1.21439L17.2505 2.47438C17.5916 2.98514 17.7736 3.58553 17.7736 4.19971C17.7736 4.81389 17.5916 5.41428 17.2505 5.92504L16.4105 7.18503C15.9398 7.8917 16.7838 8.73436 17.4905 8.26236L18.7492 7.42237C19.2599 7.08127 19.8603 6.89923 20.4745 6.89923C21.0887 6.89923 21.6891 7.08127 22.1998 7.42237L23.4598 8.26236C24.1665 8.73436 25.0091 7.8917 24.5371 7.18503L23.6972 5.92504C23.3561 5.41428 23.174 4.81389 23.174 4.19971C23.174 3.58553 23.3561 2.98514 23.6972 2.47438L24.5371 1.21439C25.0091 0.507723 24.1665 -0.334941 23.4585 0.137058L22.1998 0.977055C21.6891 1.31815 21.0887 1.50019 20.4745 1.50019C19.8603 1.50019 19.2599 1.31815 18.7492 0.977055L17.4892 0.137058Z" fill="#280636" fill-opacity="0.5"/>
</svg>
