<svg width="28" height="28" viewBox="0 0 28 28" fill="none" xmlns="http://www.w3.org/2000/svg">
<path fill-rule="evenodd" clip-rule="evenodd" d="M15.5486 28H12.452C7.62637 28 5.21428 28 3.56935 26.5832C1.92442 25.1664 1.58284 22.7962 0.901069 18.053L0.510486 15.3412C-0.0214905 11.6494 -0.287479 9.8028 0.469888 8.225C1.22725 6.6472 2.83718 5.6868 6.05844 3.7688L7.99735 2.6138C10.9204 0.8708 12.3848 0 14.0003 0C15.6158 0 17.0788 0.8708 20.0032 2.6138L21.9421 3.7688C25.162 5.6868 26.7733 6.6472 27.5307 8.225C28.2881 9.8028 28.0207 11.6494 27.4887 15.3412L27.0995 18.053C26.4177 22.7962 26.0762 25.1664 24.4312 26.5832C22.7863 28 20.3742 28 15.5486 28ZM8.95771 18.9742C9.12351 18.7505 9.37136 18.6019 9.64676 18.5609C9.92215 18.5199 10.2025 18.59 10.4262 18.7558C11.4454 19.5118 12.6759 19.95 14.0003 19.95C15.3246 19.95 16.5552 19.5118 17.5743 18.7558C17.6851 18.6736 17.811 18.6141 17.9447 18.5805C18.0785 18.547 18.2176 18.5401 18.354 18.5603C18.4905 18.5806 18.6216 18.6275 18.7399 18.6983C18.8582 18.7692 18.9614 18.8627 19.0436 18.9735C19.1257 19.0843 19.1853 19.2101 19.2188 19.3439C19.2524 19.4777 19.2592 19.6168 19.239 19.7532C19.2188 19.8897 19.1719 20.0208 19.101 20.1391C19.0301 20.2574 18.9366 20.3606 18.8259 20.4428C17.4324 21.4842 15.7399 22.0479 14.0003 22.05C12.2607 22.0479 10.5682 21.4842 9.1747 20.4428C8.95125 20.2768 8.80287 20.0288 8.76217 19.7534C8.72148 19.478 8.79182 19.1978 8.95771 18.9742Z" fill="#280636" fill-opacity="0.5"/>
</svg>
