<svg width="54" height="54" viewBox="0 0 54 54" fill="none" xmlns="http://www.w3.org/2000/svg">
<g filter="url(#filter0_i_447_155)">
<circle cx="27" cy="27" r="27" fill="#FEFAFF"/>
</g>
<path fill-rule="evenodd" clip-rule="evenodd" d="M28.3252 44H24.6755C18.9882 44 16.1454 44 14.2067 42.3302C12.2681 40.6604 11.8655 37.867 11.062 32.2768L10.6016 29.0807C9.97467 24.7296 9.66119 22.5533 10.5538 20.6937C11.4464 18.8342 13.3438 17.7023 17.1403 15.4418L19.4255 14.0806C22.8705 12.0263 24.5963 11 26.5003 11C28.4044 11 30.1285 12.0263 33.5752 14.0806L35.8604 15.4418C39.6552 17.7023 41.5543 18.8342 42.4469 20.6937C43.3395 22.5533 43.0244 24.7296 42.3974 29.0807L41.9387 32.2768C41.1352 37.867 40.7326 40.6604 38.7939 42.3302C36.8553 44 34.0125 44 28.3252 44ZM20.5573 33.3624C20.7527 33.0988 21.0448 32.9236 21.3694 32.8753C21.694 32.8271 22.0244 32.9097 22.2881 33.1051C23.4892 33.996 24.9395 34.5125 26.5003 34.5125C28.0612 34.5125 29.5115 33.996 30.7126 33.1051C30.8431 33.0082 30.9915 32.938 31.1492 32.8985C31.3068 32.8589 31.4707 32.8509 31.6315 32.8747C31.7923 32.8985 31.9469 32.9538 32.0863 33.0373C32.2257 33.1209 32.3473 33.2311 32.4442 33.3616C32.5411 33.4922 32.6112 33.6405 32.6508 33.7982C32.6903 33.9559 32.6984 34.1198 32.6745 34.2806C32.6507 34.4414 32.5955 34.5959 32.5119 34.7354C32.4284 34.8748 32.3182 34.9964 32.1876 35.0933C30.5453 36.3207 28.5506 36.985 26.5003 36.9875C24.4501 36.985 22.4554 36.3207 20.813 35.0933C20.5497 34.8976 20.3748 34.6054 20.3268 34.2808C20.2789 33.9563 20.3618 33.6259 20.5573 33.3624Z" fill="#280636"/>
<defs>
<filter id="filter0_i_447_155" x="0" y="0" width="54" height="57" filterUnits="userSpaceOnUse" color-interpolation-filters="sRGB">
<feFlood flood-opacity="0" result="BackgroundImageFix"/>
<feBlend mode="normal" in="SourceGraphic" in2="BackgroundImageFix" result="shape"/>
<feColorMatrix in="SourceAlpha" type="matrix" values="0 0 0 0 0 0 0 0 0 0 0 0 0 0 0 0 0 0 127 0" result="hardAlpha"/>
<feOffset dy="3"/>
<feGaussianBlur stdDeviation="2"/>
<feComposite in2="hardAlpha" operator="arithmetic" k2="-1" k3="1"/>
<feColorMatrix type="matrix" values="0 0 0 0 0.14902 0 0 0 0 0.105882 0 0 0 0 0.447059 0 0 0 0.15 0"/>
<feBlend mode="normal" in2="shape" result="effect1_innerShadow_447_155"/>
</filter>
</defs>
</svg>
