<svg width="54" height="54" viewBox="0 0 54 54" fill="none" xmlns="http://www.w3.org/2000/svg">
<g filter="url(#filter0_i_447_154)">
<circle cx="27" cy="27" r="27" fill="#FEFAFF"/>
</g>
<path d="M44.7812 39.1757H11.875V16.9314C11.875 16.2846 11.3296 15.7607 10.6562 15.7607H8.21875C7.54539 15.7607 7 16.2846 7 16.9314V41.5172C7 42.8101 8.09154 43.8587 9.4375 43.8587H44.7812C45.4546 43.8587 46 43.3347 46 42.6879V40.3464C46 39.6996 45.4546 39.1757 44.7812 39.1757ZM42.3438 18.1022H33.3509C31.7223 18.1022 30.9065 19.9937 32.0583 21.1L34.5262 23.4708L28.9375 28.8401L23.3488 23.4715C22.3966 22.5569 20.8534 22.5569 19.902 23.4715L14.6697 28.4977C14.1937 28.955 14.1937 29.6963 14.6697 30.1536L16.3928 31.8087C16.8688 32.266 17.6404 32.266 18.1165 31.8087L21.625 28.4377L27.2137 33.8063C28.1659 34.721 29.7091 34.721 30.6605 33.8063L37.973 26.7818L40.441 29.1526C41.5927 30.2589 43.5617 29.4753 43.5617 27.9109V19.2729C43.5625 18.6261 43.0171 18.1022 42.3438 18.1022Z" fill="#280636"/>
<defs>
<filter id="filter0_i_447_154" x="0" y="0" width="54" height="57" filterUnits="userSpaceOnUse" color-interpolation-filters="sRGB">
<feFlood flood-opacity="0" result="BackgroundImageFix"/>
<feBlend mode="normal" in="SourceGraphic" in2="BackgroundImageFix" result="shape"/>
<feColorMatrix in="SourceAlpha" type="matrix" values="0 0 0 0 0 0 0 0 0 0 0 0 0 0 0 0 0 0 127 0" result="hardAlpha"/>
<feOffset dy="3"/>
<feGaussianBlur stdDeviation="2"/>
<feComposite in2="hardAlpha" operator="arithmetic" k2="-1" k3="1"/>
<feColorMatrix type="matrix" values="0 0 0 0 0.14902 0 0 0 0 0.105882 0 0 0 0 0.447059 0 0 0 0.15 0"/>
<feBlend mode="normal" in2="shape" result="effect1_innerShadow_447_154"/>
</filter>
</defs>
</svg>
