<svg width="282" height="345" viewBox="0 0 282 345" fill="none" xmlns="http://www.w3.org/2000/svg">
<path d="M30.8196 -4.07055L29.9956 4.03215C28.4407 19.3214 35.4849 34.1992 48.2858 42.6621V42.6621C57.0861 48.4802 67.783 50.7025 78.1808 48.8729L98.1159 45.365V45.365C107.439 43.2692 113.549 54.8203 106.584 61.3735L95.927 71.4004C85.8443 80.8871 94.9783 97.5631 108.381 94.1382L125.526 89.7569C146.29 84.451 157.172 113.431 138.074 123.173L90.0585 147.666C75.2335 155.228 81.0871 177.658 97.7022 176.956V176.956C99.4451 176.882 101.164 176.514 102.785 175.868L113.553 171.574C122.98 167.814 133.714 171.74 138.485 180.691V180.691C142.358 187.959 150.303 192.086 158.477 191.076L236.008 181.498C244.123 180.496 252.341 182.116 259.463 186.122V186.122C288.303 202.346 284.359 245.097 253.031 255.854L247.978 257.589C242.393 259.507 236.46 260.187 230.59 259.583L51.2484 241.127V241.127C-0.748641 238.703 -16.1764 311.042 32.3085 329.934L61.9895 341.5" stroke="#FFA600" stroke-width="6" stroke-linecap="round"/>
</svg>
