<svg width="391" height="535" viewBox="0 0 391 535" fill="none" xmlns="http://www.w3.org/2000/svg">
<path d="M12.7402 399.684L12.7402 405.372C12.7401 440.704 31.361 473.445 61.7286 491.509L106.759 518.294C129.512 531.828 157.005 534.801 182.088 526.441L187.902 524.503C189.035 524.125 190.133 523.65 191.183 523.082L207.513 514.252C224.052 505.31 216.052 480.067 197.372 482.257V482.257C177.418 484.595 177.247 513.518 197.172 516.155L283.475 527.577C303.952 530.287 320.145 510.583 313.544 490.988L301.19 454.313C297.193 442.449 306.899 430.481 319.317 431.961L365.721 437.489C377.284 438.866 381.616 422.823 370.942 418.154V418.154L332.757 403.304C312.99 395.617 322.111 365.934 342.762 370.744V370.744C359.754 374.703 371.003 353.622 358.281 341.663L344.627 328.828C329.607 314.709 342.389 289.749 362.595 293.742V293.742C385.11 298.19 396.772 267.929 377.123 256.044L350.923 240.197C330.527 227.86 336.748 196.742 360.16 192.411V192.411C379.876 188.763 388.785 165.172 375.987 149.697L336.974 102.524C327.139 90.6321 332.268 72.5839 346.874 67.6848L347.72 67.401C364.155 61.8886 380.038 77.133 375.226 93.7997V93.7997C372.666 102.664 364.738 108.897 355.524 109.289L36.1823 122.875C26.8928 123.271 17.9131 119.457 11.7344 112.493L11.0529 111.724C-3.25604 95.5958 3.38565 70.1154 23.731 63.0858L35.3579 59.0685C43.1459 56.3776 47.6945 48.2906 45.9577 40.223V40.223C42.5484 24.3862 61.7702 13.8143 73.3218 25.1728L85.8184 37.4605C94.9866 46.4755 109.935 45.5315 117.868 35.4366L120.492 32.0991C131.289 18.3611 152.424 19.4343 161.821 34.1977L165.814 40.4719C177.32 58.5488 203.31 59.5738 216.147 42.4569L245 3.98257" stroke="#FFA600" stroke-width="6" stroke-linecap="round"/>
</svg>
