<svg width="391" height="535" viewBox="0 0 391 535" fill="none" xmlns="http://www.w3.org/2000/svg">
<path d="M12.7412 399.684L12.7412 418.154M245.001 3.98273L216.398 41.9679C202.35 60.6246 173.504 57.6429 163.501 36.5002V36.5002M373.501 98V98C379.043 87.4706 375.084 74.4254 364.621 68.739L364.024 68.4147C350.937 61.3025 334.747 69.0384 332.066 83.6848V83.6848C331.368 87.4935 331.692 91.4206 333.005 95.0663L333.681 96.9438C334.884 100.287 336.684 103.384 338.994 106.084L368.001 140M75.501 27.0002V27.0002C64.6865 13.7985 43.4367 23.5069 45.934 40.3853V40.3853C47.1264 48.4448 42.4236 56.2702 34.7293 58.9123L24.566 62.4022C19.61 64.104 15.1912 67.0827 11.754 71.0386L10.2934 72.7196C-0.519136 85.1638 1.16265 104.121 14 114.5V114.5M375.501 255L377.201 256.029C396.856 267.93 385.182 298.204 362.653 293.753V293.753C342.431 289.758 329.638 314.738 344.671 328.868L358.282 341.663C371.005 353.623 359.755 374.703 342.763 370.745V370.745C322.112 365.934 312.991 395.617 332.758 403.304L370.943 418.154V418.154C381.617 422.824 377.285 438.866 365.722 437.489L319.318 431.961C306.9 430.481 297.194 442.449 301.191 454.313L313.545 490.988C320.146 510.583 303.952 530.288 283.476 527.577L197.173 516.155C177.248 513.518 177.419 484.596 197.373 482.257V482.257C216.053 480.067 224.053 505.31 207.514 514.252L191.184 523.082C190.134 523.65 189.036 524.125 187.903 524.503L182.089 526.441C157.006 534.802 129.513 531.828 106.76 518.294L77.6656 500.988" stroke="#FFA600" stroke-width="6" stroke-linecap="round"/>
</svg>
