<svg width="51" height="55" viewBox="0 0 51 55" fill="none" xmlns="http://www.w3.org/2000/svg">
<path d="M50.0669 5.93437C50.9122 2.27806 47.1086 -0.70914 43.7574 0.981848L2.79732 21.6193C-0.565173 23.3146 -0.413457 28.1629 3.04591 29.6476L14.1362 34.4038C16.2182 35.2967 18.6403 34.6782 20.0394 32.8966L28.405 22.2433C28.8938 21.6427 29.5989 21.2581 30.3685 21.1723C31.138 21.0865 31.9105 21.3065 32.5195 21.7848C33.1285 22.263 33.5253 22.9614 33.6245 23.7294C33.7236 24.4974 33.5171 25.2737 33.0495 25.8909L24.684 36.544C23.2849 38.3257 23.2585 40.8255 24.6198 42.6364L31.8717 52.2835C34.1313 55.2928 38.8766 54.2878 39.7267 50.622L50.0669 5.93437Z" fill="#FFA600"/>
</svg>
