<svg width="609" height="577" viewBox="0 0 609 577" fill="none" xmlns="http://www.w3.org/2000/svg">
<path d="M609 74C609 114.869 575.869 148 535 148H458.5C441.655 148 428 161.655 428 178.5V178.5C428 195.345 441.655 209 458.5 209H465.5C486.211 209 503 225.789 503 246.5V283C503 323.869 469.869 357 429 357H366C346.118 357 330 373.118 330 393V393C330 412.882 346.118 429 366 429H389C421.585 429 448 455.415 448 488V503C448 543.869 414.869 577 374 577H170.5C132.116 577 101 545.884 101 507.5V488.5C101 460.61 78.3904 438 50.5 438V438C22.6096 438 0 415.39 0 387.5V360.5C0 317.698 34.6979 283 77.5 283H135C146.598 283 156 273.598 156 262V262C156 250.402 146.598 241 135 241H118.5C97.7893 241 81 224.211 81 203.5V167C81 126.131 114.131 93 155 93H215.5C241.181 93 262 72.1812 262 46.5V46.5C262 20.8188 282.819 0 308.5 0H535C575.869 0 609 33.1309 609 74V74Z" fill="#ACFF65"/>
</svg>
