<svg width="402" height="469" viewBox="0 0 402 469" fill="none" xmlns="http://www.w3.org/2000/svg">
<path d="M477 -34C477 6.86907 443.869 40 403 40H326.5C309.655 40 296 53.6553 296 70.5V70.5C296 87.3447 309.655 101 326.5 101H333.5C354.211 101 371 117.789 371 138.5V175C371 215.869 337.869 249 297 249H234C214.118 249 198 265.118 198 285V285C198 304.882 214.118 321 234 321H257C289.585 321 316 347.415 316 380V395C316 435.869 282.869 469 242 469H38.5C0.116208 469 -31 437.884 -31 399.5V380.5C-31 352.61 -53.6096 330 -81.5 330V330C-109.39 330 -132 307.39 -132 279.5V252.5C-132 209.698 -97.3021 175 -54.5 175H3C14.598 175 24 165.598 24 154V154C24 142.402 14.598 133 3 133H-13.5C-34.2107 133 -51 116.211 -51 95.5V59C-51 18.1309 -17.8691 -15 23 -15H83.5C109.181 -15 130 -35.8188 130 -61.5V-61.5C130 -87.1812 150.819 -108 176.5 -108H403C443.869 -108 477 -74.8691 477 -34V-34Z" fill="#ACFF65"/>
</svg>
