<svg width="28" height="27" viewBox="0 0 28 27" fill="none" xmlns="http://www.w3.org/2000/svg">
<path d="M8.62868 25.2859L1 26L3.14557 18.8589L18.6413 3.38659C19.4947 2.68945 21.1357 1.26635 21.0357 1.02195C21.0171 0.99993 21.0131 0.994065 21.0253 1.00623C21.0298 1.01075 21.0333 1.016 21.0357 1.02195C21.3602 1.40601 26.1254 6.70442 26.8895 6.97106C26.9845 6.89282 27.024 6.87961 26.9852 6.95713C26.9715 6.98452 26.9388 6.98827 26.8895 6.97106C26.5179 7.27721 25.2974 8.57914 24.6012 9.33749L8.62868 25.2859Z" fill="#FF5252"/>
<path d="M3.14557 18.8589L8.62868 25.2859M3.14557 18.8589L1 26L8.62868 25.2859M3.14557 18.8589L18.6413 3.38659M8.62868 25.2859L24.6012 9.33749M18.6413 3.38659L24.6012 9.33749M18.6413 3.38659C19.5155 2.67248 21.216 1.19666 21.0253 1.00623C20.7869 0.768194 26.7468 7.4332 26.9852 6.95713C27.1759 6.57627 25.4754 8.38534 24.6012 9.33749" stroke="#FEFAFF"/>
</svg>
