<svg width="32" height="24" viewBox="0 0 32 24" fill="none" xmlns="http://www.w3.org/2000/svg">
<path d="M0.773189 13.7779C0.278092 13.3064 5.53702e-07 12.6672 5.24573e-07 12.0008C4.95444e-07 11.3344 0.278092 10.6953 0.773189 10.2238L10.7421 0.736767C11.238 0.265023 11.9107 -5.27664e-07 12.6121 -5.51294e-07C13.3135 -5.74923e-07 13.9862 0.265023 14.4822 0.736767C14.9781 1.20851 15.2568 1.84833 15.2568 2.51548C15.2568 3.18263 14.9781 3.82245 14.4822 4.29419L9.02537 9.48616L29.3562 9.48616C30.0574 9.48616 30.7298 9.7511 31.2256 10.2227C31.7215 10.6943 32 11.3339 32 12.0008C32 12.6678 31.7215 13.3074 31.2256 13.779C30.7298 14.2506 30.0574 14.5155 29.3562 14.5155L9.02537 14.5155L14.4822 19.7058C14.7278 19.9394 14.9226 20.2167 15.0555 20.5219C15.1884 20.8271 15.2568 21.1542 15.2568 21.4845C15.2568 21.8149 15.1884 22.142 15.0555 22.4472C14.9226 22.7523 14.7278 23.0297 14.4822 23.2632C14.2366 23.4968 13.9451 23.6821 13.6242 23.8085C13.3033 23.9349 12.9594 24 12.6121 24C12.2648 24 11.9209 23.9349 11.6001 23.8085C11.2792 23.6821 10.9877 23.4968 10.7421 23.2632L0.773189 13.7779Z" fill="#280636"/>
</svg>
