<svg width="32" height="24" viewBox="0 0 32 24" fill="none" xmlns="http://www.w3.org/2000/svg">
<path d="M31.2268 13.7779C31.7219 13.3064 32 12.6672 32 12.0008C32 11.3344 31.7219 10.6953 31.2268 10.2238L21.2579 0.736767C20.762 0.265023 20.0893 -5.27664e-07 19.3879 -5.51294e-07C18.6865 -5.74923e-07 18.0138 0.265023 17.5178 0.736767C17.0219 1.20851 16.7432 1.84833 16.7432 2.51548C16.7432 3.18263 17.0219 3.82245 17.5178 4.29419L22.9746 9.48616L2.6438 9.48616C1.94262 9.48616 1.27016 9.7511 0.774353 10.2227C0.278545 10.6943 6.5857e-07 11.3339 6.29417e-07 12.0008C6.00264e-07 12.6678 0.278544 13.3074 0.774353 13.779C1.27016 14.2506 1.94262 14.5155 2.6438 14.5155L22.9746 14.5155L17.5178 19.7058C17.2722 19.9394 17.0774 20.2167 16.9445 20.5219C16.8116 20.8271 16.7432 21.1542 16.7432 21.4845C16.7432 21.8149 16.8116 22.142 16.9445 22.4472C17.0774 22.7523 17.2722 23.0297 17.5178 23.2632C17.7634 23.4968 18.0549 23.6821 18.3758 23.8085C18.6967 23.9349 19.0406 24 19.3879 24C19.7352 24 20.0791 23.9349 20.3999 23.8085C20.7208 23.6821 21.0123 23.4968 21.2579 23.2632L31.2268 13.7779Z" fill="#280636"/>
</svg>
