<svg width="93" height="89" viewBox="0 0 93 89" fill="none" xmlns="http://www.w3.org/2000/svg">
<path fill-rule="evenodd" clip-rule="evenodd" d="M73.1768 13.2023C74.0117 13.3829 74.741 13.8862 75.2043 14.6017C75.6676 15.3171 75.8268 16.1859 75.6471 17.0171C75.4673 17.8483 74.9633 18.5737 74.2458 19.0338C73.5283 19.4939 72.6562 19.6509 71.8213 19.4703C70.9863 19.2898 70.257 18.7864 69.7938 18.071C69.3305 17.3556 69.1712 16.4867 69.351 15.6555C69.5307 14.8243 70.0348 14.0989 70.7523 13.6388C71.4698 13.1788 72.3419 13.0218 73.1768 13.2023ZM27.536 7.89428C26.8252 7.42973 25.9609 7.25963 25.1272 7.42022C24.2935 7.5808 23.5563 8.05939 23.0727 8.754C22.0971 10.2376 22.5034 12.1939 23.9442 13.2007C33.8188 19.8117 38.4267 29.5854 40.2574 37.0639C24.4038 24.5975 9.15042 25.9046 2.31071 29.0747C1.54007 29.4266 0.941916 30.0693 0.647852 30.8613C0.353788 31.6533 0.387899 32.5298 0.742679 33.298C1.48884 34.8933 3.39469 35.5661 4.99509 34.826C9.49225 32.8004 21.8654 31.0876 35.6565 41.5873C32.8739 41.9414 30.1118 42.6042 27.6146 43.4546C22.3521 45.1843 17.7235 47.6159 15.0289 49.3796C13.5504 50.3634 13.1284 52.3143 14.0773 53.7796C15.0678 55.2539 17.0276 55.6778 18.4971 54.7355C20.828 53.2408 24.9262 51.042 29.6255 49.4947C31.4581 48.8916 33.3055 48.4221 35.1169 48.1186C33.9393 49.1241 32.7168 50.337 31.4673 51.6745C25.4913 58.1165 18.7522 68.0868 15.691 82.2417C15.323 83.9436 16.4354 85.6615 18.1449 86.0312C19.8545 86.401 21.5774 85.2962 21.9454 83.5943C24.7194 70.7677 30.8081 61.7865 36.2055 56.0015C38.7045 53.3265 41.0598 51.3157 42.8365 49.9619C44.4881 54.838 44.9666 62.111 40.9719 74.326C40.4281 76.0333 41.3558 77.7982 43.0204 78.3755C44.7358 78.9202 46.5061 77.9996 47.0827 76.3427C50.3783 66.1492 50.9396 58.71 50.0963 52.9224C51.0874 53.7885 52.1023 54.7466 53.1319 55.8384C58.3308 61.2644 63.5896 69.4408 64.1955 80.565C64.295 82.3246 65.7981 83.6491 67.5647 83.5531C69.3313 83.4572 70.6584 81.9627 70.5588 80.2031C69.8476 67.1442 63.6547 57.6361 57.7476 51.4486C54.971 48.5452 52.2594 46.351 50.0981 44.8408C57.5561 40.0229 71.5763 35.5378 87.2994 44.3696C88.8178 45.2194 90.7665 44.6849 91.6587 43.1832C91.8657 42.8172 91.9978 42.4138 92.0474 41.9964C92.097 41.579 92.0632 41.1558 91.9478 40.7512C91.8325 40.3465 91.6379 39.9685 91.3753 39.6388C91.1127 39.3092 90.7872 39.0344 90.4177 38.8304C74.8197 30.0257 60.4947 32.4895 51.0411 37.0497C54.9259 30.59 60.6103 26.9093 63.5635 25.7665C65.1877 25.1183 65.9759 23.29 65.3311 21.6298C65.0132 20.8476 64.3971 20.2223 63.6179 19.8909C62.8387 19.5594 61.96 19.549 61.1742 19.8618C57.3121 21.3729 50.5725 25.6944 45.8346 33.2732C43.3643 24.9177 38.0149 14.9402 27.536 7.89428ZM43.2513 85.986C43.6194 84.284 42.507 82.5661 40.7974 82.1964C39.9625 82.0158 39.0904 82.1729 38.3729 82.6329C37.6554 83.093 37.1513 83.8184 36.9716 84.6496C36.7918 85.4808 36.9511 86.3497 37.4144 87.0651C37.8776 87.7805 38.607 88.2839 39.4419 88.4644C41.1514 88.8341 42.8653 87.7709 43.2424 86.0275L43.2513 85.986ZM80.0602 57.0561C80.4283 55.3542 79.3158 53.6363 77.6063 53.2665C76.7714 53.086 75.8992 53.243 75.1817 53.7031C74.4643 54.1631 73.9602 54.8885 73.7804 55.7197C73.6007 56.5509 73.76 57.4198 74.2232 58.1352C74.6865 58.8506 75.4158 59.354 76.2507 59.5346C77.9603 59.9043 79.6832 58.7995 80.0512 57.0976L80.0602 57.0561ZM47.2614 11.9429C48.0963 12.1235 48.8256 12.6268 49.2889 13.3423C49.7522 14.0577 49.9115 14.9265 49.7317 15.7577C49.5519 16.5889 49.0479 17.3143 48.3304 17.7744C47.6129 18.2345 46.7408 18.3915 45.9059 18.2109C45.071 18.0304 44.3416 17.527 43.8784 16.8116C43.4151 16.0962 43.2558 15.2273 43.4356 14.3961C43.6153 13.5649 44.1194 12.8395 44.8369 12.3794C45.5544 11.9194 46.4265 11.7624 47.2614 11.9429ZM72.6187 51.1016C72.9867 49.3997 71.8743 47.6818 70.1647 47.3121C69.3298 47.1315 68.4577 47.2885 67.7402 47.7486C67.0227 48.2087 66.5187 48.9341 66.3389 49.7653C66.1592 50.5965 66.3184 51.4653 66.7817 52.1808C67.245 52.8962 67.9743 53.3995 68.8092 53.5801C70.5187 53.9498 72.2416 52.845 72.6097 51.1431L72.6187 51.1016ZM14.8022 0.578038C15.6371 0.7586 16.3664 1.26196 16.8297 1.97737C17.293 2.69279 17.4523 3.56166 17.2725 4.39285C17.0927 5.22404 16.5887 5.94946 15.8712 6.40953C15.1537 6.86959 14.2816 7.02661 13.4467 6.84605C12.6118 6.66549 11.8824 6.16213 11.4192 5.44672C10.9559 4.7313 10.7966 3.86243 10.9764 3.03124C11.1561 2.20005 11.6602 1.47463 12.3777 1.01456C13.0952 0.554499 13.9673 0.397476 14.8022 0.578038ZM9.75553 59.2323C10.1236 57.5304 9.01114 55.8125 7.3016 55.4428C6.46668 55.2622 5.59456 55.4193 4.87707 55.8793C4.15959 56.3394 3.65553 57.0648 3.47577 57.896C3.29602 58.7272 3.45529 59.5961 3.91856 60.3115C4.38183 61.0269 5.11114 61.5302 5.94606 61.7108C7.6556 62.0805 9.37849 60.9758 9.74655 59.2739L9.75553 59.2323Z" fill="#FF5252"/>
</svg>
