<svg width="691" height="691" viewBox="0 0 691 691" fill="none" xmlns="http://www.w3.org/2000/svg">
<path d="M336.384 259.112C353.641 231.605 396.102 243.306 396.832 275.77V275.77C397.157 290.221 407.128 302.804 421.064 306.645V306.645C452.336 315.263 455.959 358.75 426.055 371.32L421.035 373.43C407.882 378.958 399.447 391.968 399.768 406.233L399.937 413.765C400.648 445.357 360.296 459.125 341.55 433.686V433.686C332.687 421.66 316.742 417.266 302.97 423.055V423.055C273.839 435.299 246.235 402.805 263.029 376.037L267.033 369.654C274.616 357.568 274.036 342.074 265.571 330.588L262.341 326.204C243.096 300.091 268.485 264.598 299.757 273.216V273.216C313.693 277.056 328.702 271.357 336.384 259.112V259.112Z" fill="#1B1E8C"/>
<g filter="url(#filter0_f_251_64)">
<path d="M338.042 289.636C348.989 272.187 375.923 279.61 376.386 300.202V300.202C376.592 309.369 382.917 317.351 391.756 319.786V319.786C411.593 325.253 413.891 352.838 394.923 360.811L391.738 362.149C383.395 365.656 378.045 373.909 378.248 382.957L378.356 387.735C378.807 407.774 353.211 416.507 341.319 400.371V400.371C335.698 392.743 325.583 389.955 316.848 393.627V393.627C298.369 401.394 280.86 380.782 291.512 363.803L294.052 359.754C298.862 352.088 298.494 342.26 293.125 334.974L291.076 332.193C278.869 315.629 294.973 293.115 314.81 298.582V298.582C323.649 301.018 333.17 297.403 338.042 289.636V289.636Z" fill="#5826AE"/>
</g>
<mask id="mask0_251_64" style="mask-type:alpha" maskUnits="userSpaceOnUse" x="277" y="357" width="45" height="45">
<circle cx="299.391" cy="379.648" r="21.6452" transform="rotate(109.364 299.391 379.648)" fill="white"/>
</mask>
<g mask="url(#mask0_251_64)">
<circle cx="299.057" cy="380.598" r="21.6452" transform="rotate(109.364 299.057 380.598)" fill="white"/>
<circle cx="284.478" cy="385.082" r="11.0743" transform="rotate(109.364 284.478 385.082)" fill="black"/>
</g>
<mask id="mask1_251_64" style="mask-type:alpha" maskUnits="userSpaceOnUse" x="327" y="371" width="44" height="45">
<circle cx="348.721" cy="393.521" r="21.6452" transform="rotate(109.364 348.721 393.521)" fill="white"/>
</mask>
<g mask="url(#mask1_251_64)">
<circle cx="348.387" cy="394.471" r="21.6452" transform="rotate(109.364 348.387 394.471)" fill="white"/>
<circle cx="336.906" cy="398.336" r="11.0743" transform="rotate(109.364 336.906 398.336)" fill="black"/>
</g>
<defs>
<filter id="filter0_f_251_64" x="243.039" y="236.075" width="208.724" height="216.487" filterUnits="userSpaceOnUse" color-interpolation-filters="sRGB">
<feFlood flood-opacity="0" result="BackgroundImageFix"/>
<feBlend mode="normal" in="SourceGraphic" in2="BackgroundImageFix" result="shape"/>
<feGaussianBlur stdDeviation="21.9" result="effect1_foregroundBlur_251_64"/>
</filter>
</defs>
</svg>
