<svg width="172" height="172" viewBox="0 0 172 172" fill="none" xmlns="http://www.w3.org/2000/svg">
<path d="M82.4495 64.4102C86.4261 57.4092 97.0713 59.8474 97.6042 67.8813V67.8813C97.8414 71.4576 100.448 74.4666 103.941 75.2668V75.2668C111.782 77.0625 113.151 87.7959 105.879 91.2337L104.658 91.8108C101.46 93.3229 99.5117 96.6371 99.7458 100.167L99.8695 102.031C100.388 109.85 90.5416 113.697 85.6219 107.599V107.599C83.296 104.716 79.2986 103.8 75.9498 105.384V105.384C68.8662 108.733 61.6761 100.983 65.5459 94.1697L66.4687 92.5452C68.216 89.469 67.9044 85.6372 65.6831 82.8837L64.8352 81.8327C59.785 75.5727 65.6893 66.5053 73.5294 68.301V68.301C77.0231 69.1012 80.6793 67.5267 82.4495 64.4102V64.4102Z" fill="#1B1E8C"/>
<g filter="url(#filter0_f_133_152)">
<path d="M83.1911 71.9534C85.7135 67.5125 92.4659 69.0592 92.804 74.1552V74.1552C92.9544 76.4237 94.6077 78.3323 96.8238 78.8399V78.8399C101.797 79.979 102.665 86.7873 98.0529 88.968L97.2786 89.3341C95.2498 90.2933 94.0139 92.3955 94.1625 94.6347L94.2409 95.8172C94.5699 100.776 88.324 103.217 85.2034 99.3489V99.3489C83.7281 97.5201 81.1924 96.9393 79.0682 97.9436V97.9436C74.575 100.068 70.0142 95.152 72.4689 90.8304L73.0542 89.7999C74.1625 87.8486 73.9649 85.418 72.5559 83.6715L72.0181 83.0048C68.8146 79.034 72.5598 73.2824 77.5329 74.4214V74.4214C79.749 74.929 82.0682 73.9303 83.1911 71.9534V71.9534Z" fill="#5826AE"/>
</g>
<mask id="mask0_133_152" style="mask-type:alpha" maskUnits="userSpaceOnUse" x="69" y="89" width="11" height="12">
<circle cx="74.5926" cy="94.6701" r="5.367" transform="rotate(106.857 74.5926 94.6701)" fill="white"/>
</mask>
<g mask="url(#mask0_133_152)">
<circle cx="74.5201" cy="94.909" r="5.367" transform="rotate(106.857 74.5201 94.909)" fill="white"/>
<circle cx="70.9574" cy="96.1778" r="2.74591" transform="rotate(106.857 70.9574 96.1778)" fill="black"/>
</g>
<mask id="mask1_133_152" style="mask-type:alpha" maskUnits="userSpaceOnUse" x="81" y="92" width="12" height="11">
<circle cx="86.9628" cy="97.5718" r="5.367" transform="rotate(106.857 86.9628 97.5718)" fill="white"/>
</mask>
<g mask="url(#mask1_133_152)">
<circle cx="86.8903" cy="97.8107" r="5.367" transform="rotate(106.857 86.8903 97.8107)" fill="white"/>
<circle cx="84.0882" cy="98.8925" r="2.74591" transform="rotate(106.857 84.0882 98.8925)" fill="black"/>
</g>
<defs>
<filter id="filter0_f_133_152" x="27.0279" y="25.5421" width="117.848" height="119.513" filterUnits="userSpaceOnUse" color-interpolation-filters="sRGB">
<feFlood flood-opacity="0" result="BackgroundImageFix"/>
<feBlend mode="normal" in="SourceGraphic" in2="BackgroundImageFix" result="shape"/>
<feGaussianBlur stdDeviation="21.9" result="effect1_foregroundBlur_133_152"/>
</filter>
</defs>
</svg>
