<svg width="28" height="22" viewBox="0 0 28 22" fill="none" xmlns="http://www.w3.org/2000/svg">
<path d="M0.67654 9.37028C0.243329 9.80249 -5.06298e-07 10.3884 -4.79663e-07 10.9992C-4.53028e-07 11.6101 0.243329 12.196 0.67654 12.6282L9.39932 21.3246C9.83329 21.7571 10.4219 22 11.0356 22C11.6493 22 12.2379 21.7571 12.6719 21.3246C13.1059 20.8922 13.3497 20.3057 13.3497 19.6941C13.3497 19.0826 13.1059 18.4961 12.6719 18.0637L7.8972 13.3044L25.6867 13.3044C26.3002 13.3044 26.8886 13.0615 27.3224 12.6292C27.7563 12.1969 28 11.6106 28 10.9992C28 10.3879 27.7563 9.80156 27.3224 9.36927C26.8886 8.93697 26.3002 8.69411 25.6867 8.69411L7.8972 8.69411L12.6719 3.93635C12.8868 3.72223 13.0572 3.46803 13.1735 3.18827C13.2898 2.90851 13.3497 2.60867 13.3497 2.30586C13.3497 2.00305 13.2898 1.70321 13.1735 1.42345C13.0572 1.14369 12.8868 0.889489 12.6719 0.675371C12.457 0.461252 12.2019 0.291406 11.9212 0.175525C11.6404 0.0596453 11.3395 1.80808e-06 11.0356 1.82591e-06C10.7317 1.84374e-06 10.4308 0.0596453 10.1501 0.175526C9.8693 0.291406 9.6142 0.461252 9.39932 0.675371L0.67654 9.37028Z" fill="#280636" fill-opacity="0.5"/>
</svg>
