<svg width="27" height="27" viewBox="0 0 27 27" fill="none" xmlns="http://www.w3.org/2000/svg">
<path d="M26.8584 3.08648C27.5208 1.25399 25.7451 -0.52176 23.9127 0.142229L1.51774 8.24198C-0.320777 8.9075 -0.543117 11.4162 1.1482 12.3961L4.97225 14.6101C6.93271 15.7452 9.41134 15.4204 11.0131 13.8185L14.6803 10.1511C14.9695 9.87181 15.3568 9.71724 15.7588 9.72074C16.1609 9.72423 16.5455 9.8855 16.8298 10.1698C17.1141 10.4541 17.2753 10.8387 17.2788 11.2408C17.2823 11.6429 17.1278 12.0302 16.8485 12.3195L13.1815 15.9866C11.5796 17.5886 11.255 20.0674 12.3903 22.0278L14.6051 25.8523C15.5834 27.5437 18.092 27.3198 18.7575 25.4827L26.8584 3.08648Z" fill="#280636" fill-opacity="0.5"/>
</svg>
