<svg width="19" height="15" viewBox="0 0 19 15" fill="none" xmlns="http://www.w3.org/2000/svg">
<path d="M0.43868 6.09744C0.157779 6.37869 -3.30282e-07 6.75994 -3.12907e-07 7.15744C-2.95532e-07 7.55494 0.157779 7.93619 0.43868 8.21744L6.09468 13.8764C6.37607 14.1578 6.75773 14.3159 7.15568 14.3159C7.55363 14.3159 7.93529 14.1578 8.21668 13.8764C8.49808 13.595 8.65616 13.2134 8.65616 12.8154C8.65616 12.4175 8.49808 12.0358 8.21668 11.7544L5.12068 8.65744L16.6557 8.65744C17.0535 8.65744 17.435 8.4994 17.7163 8.2181C17.9976 7.93679 18.1557 7.55526 18.1557 7.15744C18.1557 6.75961 17.9976 6.37808 17.7163 6.09678C17.435 5.81547 17.0535 5.65744 16.6557 5.65744L5.12068 5.65744L8.21668 2.56144C8.35601 2.4221 8.46654 2.25669 8.54194 2.07465C8.61735 1.8926 8.65616 1.69748 8.65616 1.50044C8.65616 1.30339 8.61735 1.10827 8.54194 0.926228C8.46654 0.744181 8.35601 0.578769 8.21668 0.439437C8.07735 0.300104 7.91194 0.189581 7.72989 0.114175C7.54784 0.0387683 7.35273 -4.32397e-05 7.15568 -4.32281e-05C6.95863 -4.32166e-05 6.76352 0.0387683 6.58147 0.114175C6.39942 0.189581 6.23401 0.300104 6.09468 0.439437L0.43868 6.09744Z" fill="#FEFAFF"/>
</svg>
