<svg width="33" height="33" viewBox="0 0 33 33" fill="none" xmlns="http://www.w3.org/2000/svg">
<path fill-rule="evenodd" clip-rule="evenodd" d="M18.3252 33H14.6755C8.98822 33 6.1454 33 4.20673 31.3302C2.26807 29.6604 1.86549 26.867 1.06197 21.2768L0.601644 18.0807C-0.0253281 13.7296 -0.338814 11.5533 0.553796 9.69375C1.44641 7.8342 3.34382 6.7023 7.14031 4.4418L9.42545 3.08055C12.8705 1.0263 14.5963 0 16.5003 0C18.4044 0 20.1285 1.0263 23.5752 3.08055L25.8604 4.4418C29.6552 6.7023 31.5543 7.8342 32.4469 9.69375C33.3395 11.5533 33.0244 13.7296 32.3974 18.0807L31.9387 21.2768C31.1352 26.867 30.7326 29.6604 28.7939 31.3302C26.8553 33 24.0125 33 18.3252 33ZM10.5573 22.3624C10.7527 22.0988 11.0448 21.9236 11.3694 21.8753C11.694 21.8271 12.0244 21.9097 12.2881 22.1051C13.4892 22.996 14.9395 23.5125 16.5003 23.5125C18.0612 23.5125 19.5115 22.996 20.7126 22.1051C20.8431 22.0082 20.9915 21.938 21.1492 21.8985C21.3068 21.8589 21.4707 21.8509 21.6315 21.8747C21.7923 21.8985 21.9469 21.9538 22.0863 22.0373C22.2257 22.1209 22.3473 22.2311 22.4442 22.3616C22.5411 22.4922 22.6112 22.6405 22.6508 22.7982C22.6903 22.9559 22.6984 23.1198 22.6745 23.2806C22.6507 23.4414 22.5955 23.5959 22.5119 23.7354C22.4284 23.8748 22.3182 23.9964 22.1876 24.0933C20.5453 25.3207 18.5506 25.985 16.5003 25.9875C14.4501 25.985 12.4554 25.3207 10.813 24.0933C10.5497 23.8976 10.3748 23.6054 10.3268 23.2808C10.2789 22.9563 10.3618 22.6259 10.5573 22.3624Z" fill="#280636"/>
</svg>
