<svg width="27" height="27" viewBox="0 0 27 27" fill="none" xmlns="http://www.w3.org/2000/svg">
<path d="M9.92003 4.56726C10.7121 2.24919 13.9151 2.17899 14.8542 4.35665L14.9337 4.56859L16.0027 7.69467C16.2476 8.4116 16.6435 9.06765 17.1636 9.61857C17.6837 10.1695 18.3158 10.6025 19.0175 10.8883L19.3049 10.9956L22.431 12.0632C24.7491 12.8554 24.8193 16.0583 22.6429 16.9974L22.431 17.0769L19.3049 18.1459C18.5877 18.3907 17.9314 18.7865 17.3803 19.3066C16.8291 19.8267 16.3959 20.4589 16.1099 21.1607L16.0027 21.4468L14.935 24.5742C14.1429 26.8923 10.94 26.9625 10.0022 24.7861L9.92003 24.5742L8.85239 21.4481C8.60758 20.731 8.21177 20.0746 7.69169 19.5235C7.17161 18.9723 6.53934 18.5391 5.83757 18.2532L5.55146 18.1459L2.42537 17.0782C0.105977 16.2861 0.0357726 13.0832 2.21344 12.1454L2.42537 12.0632L5.55146 10.9956C6.26838 10.7506 6.92443 10.3548 7.47536 9.83468C8.02628 9.3146 8.45926 8.68242 8.7451 7.98079L8.85239 7.69467L9.92003 4.56726ZM23.0244 2.39341e-07C23.2722 -3.12572e-07 23.5151 0.0695134 23.7253 0.200641C23.9356 0.331769 24.1049 0.519252 24.2139 0.741783L24.2775 0.896763L24.7411 2.25582L26.1015 2.71943C26.3498 2.8038 26.5675 2.96 26.727 3.16823C26.8865 3.37646 26.9806 3.62734 26.9973 3.88909C27.014 4.15084 26.9527 4.41166 26.821 4.63851C26.6894 4.86536 26.4934 5.04802 26.2578 5.16334L26.1015 5.22692L24.7424 5.69053L24.2788 7.05091C24.1943 7.29918 24.038 7.51678 23.8297 7.67612C23.6214 7.83546 23.3705 7.92938 23.1087 7.94598C22.847 7.96258 22.5862 7.90111 22.3594 7.76935C22.1327 7.6376 21.9501 7.4415 21.8349 7.20589L21.7713 7.05091L21.3077 5.69186L19.9473 5.22825C19.699 5.14387 19.4813 4.98768 19.3218 4.77945C19.1623 4.57122 19.0683 4.32033 19.0515 4.05859C19.0348 3.79684 19.0961 3.53601 19.2278 3.30916C19.3594 3.08232 19.5555 2.89966 19.791 2.78434L19.9473 2.72075L21.3064 2.25714L21.77 0.896763C21.8593 0.635053 22.0283 0.40786 22.2533 0.247039C22.4782 0.0862177 22.7479 -0.000165949 23.0244 2.39341e-07Z" fill="#280636" fill-opacity="0.5"/>
</svg>
