<svg width="197" height="205" viewBox="0 0 197 205" fill="none" xmlns="http://www.w3.org/2000/svg">
<path d="M123.669 7.39969C123.281 5.48791 125.501 4.07311 126.922 5.40936C141.045 18.69 150.158 37.3134 150.951 58.2169C152.551 100.42 119.636 135.93 77.4327 137.53C43.8365 138.804 14.483 118.206 3.0996 88.4607C2.4024 86.6389 4.55319 85.1254 6.17304 86.2122C19.1256 94.9025 34.8462 99.7233 51.6254 99.0871C93.8289 97.4867 126.744 61.9762 125.144 19.7727C124.983 15.5466 124.482 11.414 123.669 7.39969Z" fill="#FFDC4E"/>
<g filter="url(#filter0_d_1_52)">
<path d="M68.5018 20.4672C68.1415 21.3577 66.855 21.2773 66.6084 20.3488L65.9544 17.8866C65.8419 17.463 65.4667 17.1621 65.0288 17.1441L62.4896 17.0401C61.4717 16.9984 61.1607 15.6394 62.0591 15.1591L64.0132 14.1144C64.4398 13.8863 64.642 13.3857 64.4935 12.9254L63.8131 10.8166C63.5107 9.87923 64.6026 9.11534 65.3795 9.72077L67.5521 11.4139C67.8771 11.6673 68.3243 11.6952 68.6784 11.4844L71.045 10.075C71.8912 9.57105 72.8795 10.465 72.4627 11.3574L71.525 13.3651C71.3203 13.8033 71.4586 14.3252 71.8534 14.6046L73.6622 15.8846C74.4938 16.473 74.0158 17.7827 73.0007 17.6973L70.4683 17.4842C70.0316 17.4475 69.6218 17.6994 69.4574 18.1056L68.5018 20.4672Z" fill="#FFD78D"/>
</g>
<g filter="url(#filter1_d_1_52)">
<path d="M26.4526 27.0132C26.495 26.0534 27.7346 25.6998 28.277 26.4928L30.3234 29.4845C30.5709 29.8462 31.025 30.0047 31.4437 29.8754L35.0108 28.7745C35.9842 28.4741 36.7311 29.6514 36.0445 30.404L33.7742 32.8927C33.4482 33.25 33.4247 33.7894 33.7183 34.1737L35.7197 36.7934C36.3177 37.5761 35.5433 38.6606 34.6089 38.3492L30.9075 37.1156C30.5165 36.9853 30.0856 37.1082 29.8222 37.4252L27.3286 40.4259C26.6991 41.1834 25.4691 40.6706 25.5642 39.6903L25.8823 36.4089C25.929 35.9275 25.6245 35.4817 25.1591 35.3501L21.9174 34.4337C20.9371 34.1565 20.9505 32.7624 21.9359 32.5041L25.547 31.5575C25.9709 31.4463 26.2731 31.0721 26.2925 30.6343L26.4526 27.0132Z" fill="#FFD78D"/>
</g>
<g filter="url(#filter2_d_1_52)">
<path d="M53.6569 60.6417C54.0849 59.7777 55.3674 59.9602 55.5373 60.9094L56.4982 66.2777C56.5757 66.7104 56.9267 67.0418 57.3632 67.0943L63.0467 67.7776C64.0555 67.8989 64.2615 69.2729 63.3326 69.6847L58.4518 71.8483C58.0128 72.0429 57.7742 72.522 57.8832 72.9896L59.0565 78.0206C59.2804 78.9806 58.1272 79.6512 57.4036 78.9819L53.1411 75.0389C52.8356 74.7563 52.3871 74.6925 52.0149 74.8786L46.8214 77.4754C45.9398 77.9162 45.0196 76.9505 45.5024 76.0911L48.033 71.5874C48.2683 71.1688 48.1727 70.6421 47.8055 70.3327L43.7224 66.893C42.9453 66.2384 43.5265 64.9764 44.5291 65.1415L50.1775 66.0714C50.6113 66.1428 51.0409 65.9225 51.236 65.5285L53.6569 60.6417Z" fill="#FFD78D"/>
</g>
<g filter="url(#filter3_d_1_52)">
<path d="M90.0115 41.3493C89.8674 40.4127 90.9854 39.8196 91.6801 40.4641L94.0102 42.6261C94.3277 42.9207 94.7987 42.9774 95.1771 42.7666L98.0224 41.1812C98.9206 40.6807 99.8985 41.6988 99.3624 42.5762L97.9132 44.9478C97.6543 45.3713 97.7454 45.9206 98.127 46.238L100.22 47.9791C100.975 48.6072 100.467 49.834 99.4887 49.7436L95.9821 49.4196C95.586 49.383 95.2058 49.5847 95.014 49.9332L93.3159 53.0183C92.8422 53.8789 91.5413 53.612 91.4447 52.6344L91.177 49.9249C91.1281 49.431 90.7244 49.0476 90.2286 49.0244L87.4523 48.8944C86.4252 48.8463 86.1306 47.4657 87.0487 47.0026L89.9569 45.5358C90.3436 45.3408 90.5608 44.9189 90.4949 44.4909L90.0115 41.3493Z" fill="#FFD78D"/>
</g>
<g filter="url(#filter4_d_1_52)">
<path d="M114.094 83C97.7529 83 84.1252 94.6152 81.0143 110.04C76.942 108.297 72.4576 107.332 67.7477 107.332C49.1095 107.332 33.9999 122.441 33.9997 141.079C33.9997 157.141 45.2213 170.58 60.2516 173.989C64.377 181.04 72.0279 185.777 80.7868 185.777C84.9502 185.777 88.8628 184.705 92.2663 182.825C98.2974 188.461 106.395 191.913 115.301 191.913C128.388 191.913 139.734 184.465 145.333 173.576C148.45 174.526 151.757 175.039 155.185 175.039C173.824 175.039 188.933 159.93 188.933 141.292C188.933 127.059 180.122 114.884 167.656 109.924C164.955 99.7595 155.691 92.2697 144.676 92.2695C142.44 92.2695 140.275 92.578 138.223 93.1553C132.096 86.8898 123.55 83.0001 114.094 83Z" fill="#FFAE00"/>
<path d="M115.71 88.7932C100.043 88.7932 86.8718 99.4693 83.0694 113.943C79.3835 112.561 75.3922 111.803 71.2237 111.803C52.5853 111.803 37.4756 126.913 37.4756 145.551C37.4757 161.321 48.2932 174.563 62.9122 178.266C66.7846 186.146 74.8895 191.571 84.2628 191.571C88.4262 191.571 92.3387 190.499 95.7422 188.618C101.773 194.255 109.871 197.707 118.777 197.707C131.864 197.707 143.21 190.258 148.809 179.369C151.926 180.319 155.233 180.833 158.661 180.833C177.3 180.833 192.409 165.724 192.409 147.085C192.409 131.204 181.439 117.888 166.664 114.294C163.529 104.827 154.606 97.9973 144.088 97.9973C142.469 97.9973 140.887 98.1595 139.358 98.468C133.269 92.4852 124.921 88.7933 115.71 88.7932Z" fill="#644DFF"/>
<g filter="url(#filter5_f_1_52)">
<path d="M115.599 106.173C105.523 106.173 97.0524 113.039 94.6066 122.347C92.2362 121.458 89.6692 120.972 86.9885 120.972C75.0014 120.972 65.2836 130.689 65.2834 142.676C65.2834 152.818 72.2407 161.335 81.6428 163.716C84.1332 168.784 89.3457 172.274 95.3742 172.274C98.0518 172.274 100.568 171.584 102.757 170.375C106.636 174 111.845 176.22 117.572 176.22C125.989 176.22 133.286 171.429 136.887 164.426C138.891 165.037 141.018 165.367 143.223 165.367C155.21 165.367 164.928 155.65 164.928 143.663C164.928 133.45 157.873 124.885 148.37 122.573C146.354 116.485 140.615 112.092 133.851 112.092C132.809 112.092 131.793 112.197 130.81 112.396C126.893 108.547 121.523 106.173 115.599 106.173Z" fill="#7662FF"/>
</g>
<path d="M83.4771 137.457L84.3581 138.591C89.6859 145.452 100.027 145.527 105.454 138.745V138.745" stroke="#FFD78D" stroke-width="3" stroke-linecap="round"/>
<path d="M119.74 138.938L120.757 139.953C126.904 146.09 137.172 144.867 141.705 137.457V137.457" stroke="#FFD78D" stroke-width="3" stroke-linecap="round"/>
</g>
<defs>
<filter id="filter0_d_1_52" x="52.4293" y="0.40473" width="32.758" height="31.7874" filterUnits="userSpaceOnUse" color-interpolation-filters="sRGB">
<feFlood flood-opacity="0" result="BackgroundImageFix"/>
<feColorMatrix in="SourceAlpha" type="matrix" values="0 0 0 0 0 0 0 0 0 0 0 0 0 0 0 0 0 0 127 0" result="hardAlpha"/>
<feOffset dx="1" dy="1"/>
<feGaussianBlur stdDeviation="5.05"/>
<feComposite in2="hardAlpha" operator="out"/>
<feColorMatrix type="matrix" values="0 0 0 0 1 0 0 0 0 0.843567 0 0 0 0 0.554167 0 0 0 0.3 0"/>
<feBlend mode="normal" in2="BackgroundImageFix" result="effect1_dropShadow_1_52"/>
<feBlend mode="normal" in="SourceGraphic" in2="effect1_dropShadow_1_52" result="shape"/>
</filter>
<filter id="filter1_d_1_52" x="12.0895" y="16.9558" width="35.3214" height="34.9338" filterUnits="userSpaceOnUse" color-interpolation-filters="sRGB">
<feFlood flood-opacity="0" result="BackgroundImageFix"/>
<feColorMatrix in="SourceAlpha" type="matrix" values="0 0 0 0 0 0 0 0 0 0 0 0 0 0 0 0 0 0 127 0" result="hardAlpha"/>
<feOffset dx="1" dy="1"/>
<feGaussianBlur stdDeviation="5.05"/>
<feComposite in2="hardAlpha" operator="out"/>
<feColorMatrix type="matrix" values="0 0 0 0 1 0 0 0 0 0.843567 0 0 0 0 0.554167 0 0 0 0.3 0"/>
<feBlend mode="normal" in2="BackgroundImageFix" result="effect1_dropShadow_1_52"/>
<feBlend mode="normal" in="SourceGraphic" in2="effect1_dropShadow_1_52" result="shape"/>
</filter>
<filter id="filter2_d_1_52" x="34.263" y="50.9852" width="40.765" height="39.3668" filterUnits="userSpaceOnUse" color-interpolation-filters="sRGB">
<feFlood flood-opacity="0" result="BackgroundImageFix"/>
<feColorMatrix in="SourceAlpha" type="matrix" values="0 0 0 0 0 0 0 0 0 0 0 0 0 0 0 0 0 0 127 0" result="hardAlpha"/>
<feOffset dx="1" dy="1"/>
<feGaussianBlur stdDeviation="5.05"/>
<feComposite in2="hardAlpha" operator="out"/>
<feColorMatrix type="matrix" values="0 0 0 0 1 0 0 0 0 0.843567 0 0 0 0 0.554167 0 0 0 0.3 0"/>
<feBlend mode="normal" in2="BackgroundImageFix" result="effect1_dropShadow_1_52"/>
<feBlend mode="normal" in="SourceGraphic" in2="effect1_dropShadow_1_52" result="shape"/>
</filter>
<filter id="filter3_d_1_52" x="77.3979" y="31.0938" width="34.2857" height="33.5431" filterUnits="userSpaceOnUse" color-interpolation-filters="sRGB">
<feFlood flood-opacity="0" result="BackgroundImageFix"/>
<feColorMatrix in="SourceAlpha" type="matrix" values="0 0 0 0 0 0 0 0 0 0 0 0 0 0 0 0 0 0 127 0" result="hardAlpha"/>
<feOffset dx="1" dy="1"/>
<feGaussianBlur stdDeviation="5.05"/>
<feComposite in2="hardAlpha" operator="out"/>
<feColorMatrix type="matrix" values="0 0 0 0 1 0 0 0 0 0.843567 0 0 0 0 0.554167 0 0 0 0.3 0"/>
<feBlend mode="normal" in2="BackgroundImageFix" result="effect1_dropShadow_1_52"/>
<feBlend mode="normal" in="SourceGraphic" in2="effect1_dropShadow_1_52" result="shape"/>
</filter>
<filter id="filter4_d_1_52" x="29.9997" y="82" width="166.41" height="122.707" filterUnits="userSpaceOnUse" color-interpolation-filters="sRGB">
<feFlood flood-opacity="0" result="BackgroundImageFix"/>
<feColorMatrix in="SourceAlpha" type="matrix" values="0 0 0 0 0 0 0 0 0 0 0 0 0 0 0 0 0 0 127 0" result="hardAlpha"/>
<feOffset dy="3"/>
<feGaussianBlur stdDeviation="2"/>
<feComposite in2="hardAlpha" operator="out"/>
<feColorMatrix type="matrix" values="0 0 0 0 0.14902 0 0 0 0 0.105882 0 0 0 0 0.447059 0 0 0 0.15 0"/>
<feBlend mode="normal" in2="BackgroundImageFix" result="effect1_dropShadow_1_52"/>
<feBlend mode="normal" in="SourceGraphic" in2="effect1_dropShadow_1_52" result="shape"/>
</filter>
<filter id="filter5_f_1_52" x="46.6834" y="87.5731" width="136.845" height="107.247" filterUnits="userSpaceOnUse" color-interpolation-filters="sRGB">
<feFlood flood-opacity="0" result="BackgroundImageFix"/>
<feBlend mode="normal" in="SourceGraphic" in2="BackgroundImageFix" result="shape"/>
<feGaussianBlur stdDeviation="9.3" result="effect1_foregroundBlur_1_52"/>
</filter>
</defs>
</svg>
