<svg width="42" height="41" viewBox="0 0 42 41" fill="none" xmlns="http://www.w3.org/2000/svg">
<g filter="url(#filter0_d_1_58)">
<path d="M19.6569 10.6417C20.0849 9.77767 21.3674 9.96024 21.5373 10.9094L22.4982 16.2777C22.5757 16.7104 22.9267 17.0418 23.3632 17.0943L29.0467 17.7776C30.0555 17.8989 30.2615 19.2729 29.3326 19.6847L24.4518 21.8483C24.0128 22.0429 23.7742 22.522 23.8832 22.9896L25.0565 28.0206C25.2804 28.9806 24.1272 29.6512 23.4036 28.9819L19.1411 25.0389C18.8356 24.7563 18.3871 24.6925 18.0149 24.8786L12.8214 27.4754C11.9398 27.9162 11.0196 26.9505 11.5024 26.0911L14.033 21.5874C14.2683 21.1688 14.1727 20.6421 13.8055 20.3327L9.72239 16.893C8.94532 16.2384 9.52654 14.9764 10.5291 15.1415L16.1775 16.0714C16.6113 16.1428 17.0409 15.9225 17.236 15.5285L19.6569 10.6417Z" fill="#FFD78D"/>
</g>
<defs>
<filter id="filter0_d_1_58" x="0.262915" y="0.985205" width="40.7651" height="39.3667" filterUnits="userSpaceOnUse" color-interpolation-filters="sRGB">
<feFlood flood-opacity="0" result="BackgroundImageFix"/>
<feColorMatrix in="SourceAlpha" type="matrix" values="0 0 0 0 0 0 0 0 0 0 0 0 0 0 0 0 0 0 127 0" result="hardAlpha"/>
<feOffset dx="1" dy="1"/>
<feGaussianBlur stdDeviation="5.05"/>
<feComposite in2="hardAlpha" operator="out"/>
<feColorMatrix type="matrix" values="0 0 0 0 1 0 0 0 0 0.843567 0 0 0 0 0.554167 0 0 0 0.3 0"/>
<feBlend mode="normal" in2="BackgroundImageFix" result="effect1_dropShadow_1_58"/>
<feBlend mode="normal" in="SourceGraphic" in2="effect1_dropShadow_1_58" result="shape"/>
</filter>
</defs>
</svg>
