<svg width="33" height="24" viewBox="0 0 33 24" fill="none" xmlns="http://www.w3.org/2000/svg">
<path d="M31.9688 20H4.125V1C4.125 0.4475 3.66352 0 3.09375 0H1.03125C0.461484 0 0 0.4475 0 1V22C0 23.1044 0.923613 24 2.0625 24H31.9688C32.5385 24 33 23.5525 33 23V21C33 20.4475 32.5385 20 31.9688 20ZM29.9062 2H22.2969C20.9189 2 20.2286 3.61563 21.2031 4.56063L23.2914 6.58562L18.5625 11.1719L13.8336 6.58625C13.0279 5.805 11.7221 5.805 10.9171 6.58625L6.48979 10.8794C6.08695 11.27 6.08695 11.9031 6.48979 12.2938L7.94771 13.7075C8.35055 14.0981 9.00346 14.0981 9.40629 13.7075L12.375 10.8281L17.1039 15.4137C17.9096 16.195 19.2154 16.195 20.0204 15.4137L26.2079 9.41375L28.2962 11.4388C29.2707 12.3837 30.9369 11.7144 30.9369 10.3781V3C30.9375 2.4475 30.476 2 29.9062 2Z" fill="#280636" fill-opacity="0.5"/>
</svg>
