<svg width="19" height="15" viewBox="0 0 19 15" fill="none" xmlns="http://www.w3.org/2000/svg">
<path d="M17.8297 8.21848C18.1099 7.93723 18.2673 7.55598 18.2673 7.15848C18.2673 6.76098 18.1099 6.37973 17.8297 6.09848L12.1878 0.439481C11.9071 0.158086 11.5264 -2.99583e-07 11.1295 -3.12785e-07C10.7325 -3.25987e-07 10.3518 0.158086 10.0711 0.43948C9.7904 0.720875 9.63271 1.10253 9.63271 1.50048C9.63271 1.89843 9.7904 2.28009 10.0711 2.56148L13.1594 5.65848L1.65309 5.65848C1.25625 5.65848 0.875671 5.81652 0.595066 6.09782C0.31446 6.37912 0.156818 6.76066 0.156818 7.15848C0.156818 7.5563 0.31446 7.93784 0.595066 8.21914C0.875671 8.50044 1.25625 8.65848 1.65309 8.65848L13.1594 8.65848L10.0711 11.7545C9.93211 11.8938 9.82186 12.0592 9.74664 12.2413C9.67142 12.4233 9.63271 12.6184 9.63271 12.8155C9.63271 13.0125 9.67142 13.2076 9.74664 13.3897C9.82186 13.5717 9.93211 13.7371 10.0711 13.8765C10.2101 14.0158 10.3751 14.1263 10.5567 14.2017C10.7383 14.2771 10.9329 14.316 11.1295 14.316C11.326 14.316 11.5206 14.2771 11.7022 14.2017C11.8838 14.1263 12.0488 14.0158 12.1878 13.8765L17.8297 8.21848Z" fill="#280636"/>
</svg>
