<svg width="26" height="26" viewBox="0 0 26 26" fill="none" xmlns="http://www.w3.org/2000/svg">
<path d="M16.441 2.70556C16.4759 2.8495 16.5442 2.98319 16.6405 3.09574C16.7368 3.20829 16.8583 3.29653 16.9951 3.35328C17.1319 3.41003 17.2802 3.43369 17.4279 3.42233C17.5755 3.41098 17.7185 3.36494 17.845 3.28794C21.0156 1.35749 24.6438 4.9844 22.7134 8.15502C22.6364 8.28146 22.5903 8.42428 22.5788 8.57188C22.5674 8.71948 22.591 8.86769 22.6476 9.00448C22.7042 9.14127 22.7923 9.26278 22.9047 9.35912C23.0171 9.45547 23.1506 9.52395 23.2944 9.55899C26.9019 10.4339 26.9019 15.5648 23.2944 16.441C23.1505 16.4759 23.0168 16.5442 22.9043 16.6405C22.7917 16.7368 22.7035 16.8583 22.6467 16.9951C22.59 17.1319 22.5663 17.2802 22.5777 17.4279C22.589 17.5755 22.6351 17.7185 22.7121 17.845C24.6425 21.0156 21.0156 24.6438 17.845 22.7134C17.7185 22.6364 17.5757 22.5903 17.4281 22.5788C17.2805 22.5674 17.1323 22.591 16.9955 22.6476C16.8587 22.7042 16.7372 22.7923 16.6409 22.9047C16.5445 23.0171 16.4761 23.1506 16.441 23.2944C15.5661 26.9019 10.4352 26.9019 9.55899 23.2944C9.52411 23.1505 9.45575 23.0168 9.35947 22.9043C9.26319 22.7917 9.1417 22.7035 9.0049 22.6467C8.86809 22.59 8.71982 22.5663 8.57214 22.5777C8.42446 22.589 8.28155 22.6351 8.15502 22.7121C4.9844 24.6425 1.35619 21.0156 3.28664 17.845C3.36364 17.7185 3.40973 17.5757 3.42116 17.4281C3.43259 17.2805 3.40904 17.1323 3.35243 16.9955C3.29581 16.8587 3.20773 16.7372 3.09533 16.6409C2.98293 16.5445 2.84939 16.4761 2.70556 16.441C-0.901852 15.5661 -0.901852 10.4352 2.70556 9.55899C2.8495 9.52411 2.98319 9.45575 3.09574 9.35947C3.20829 9.26319 3.29653 9.1417 3.35328 9.0049C3.41003 8.86809 3.43369 8.71982 3.42233 8.57214C3.41098 8.42446 3.36494 8.28155 3.28794 8.15502C1.35749 4.9844 4.9844 1.35619 8.15502 3.28664C8.28133 3.36422 8.42422 3.41078 8.57199 3.42251C8.71976 3.43424 8.86821 3.4108 9.00518 3.35411C9.14214 3.29742 9.26374 3.20909 9.36 3.09636C9.45626 2.98364 9.52445 2.84971 9.55899 2.70556C10.4339 -0.901852 15.5648 -0.901852 16.441 2.70556ZM13 9.1001C11.9657 9.1001 10.9737 9.51098 10.2424 10.2424C9.51098 10.9737 9.1001 11.9657 9.1001 13C9.1001 14.0343 9.51098 15.0263 10.2424 15.7576C10.9737 16.489 11.9657 16.8999 13 16.8999C14.0343 16.8999 15.0263 16.489 15.7576 15.7576C16.489 15.0263 16.8999 14.0343 16.8999 13C16.8999 11.9657 16.489 10.9737 15.7576 10.2424C15.0263 9.51098 14.0343 9.1001 13 9.1001Z" fill="#280636"/>
</svg>
